<mxfile host="Electron" modified="2023-10-13T09:15:41.404Z" agent="Mozilla/5.0 (Windows NT 10.0; Win64; x64) AppleWebKit/537.36 (KHTML, like Gecko) draw.io/22.0.2 Chrome/114.0.5735.289 Electron/25.8.4 Safari/537.36" etag="eYIieGB83_mU7a1ChW-w" version="22.0.2" type="device">
  <diagram name="페이지-1" id="5h6LrylwMpSmuzoVS5U4">
    <mxGraphModel dx="1100" dy="809" grid="1" gridSize="10" guides="1" tooltips="1" connect="1" arrows="1" fold="1" page="1" pageScale="1" pageWidth="827" pageHeight="1169" math="0" shadow="0">
      <root>
        <mxCell id="0" />
        <mxCell id="1" parent="0" />
        <mxCell id="F9F8SS4An3PDMfX3uoB--1" value="" style="rounded=0;whiteSpace=wrap;html=1;" vertex="1" parent="1">
          <mxGeometry x="60" y="80" width="120" height="60" as="geometry" />
        </mxCell>
        <mxCell id="F9F8SS4An3PDMfX3uoB--2" value="studentAhn" style="rounded=0;whiteSpace=wrap;html=1;fillColor=#bac8d3;strokeColor=#23445d;" vertex="1" parent="1">
          <mxGeometry x="80" y="90" width="80" height="40" as="geometry" />
        </mxCell>
        <mxCell id="F9F8SS4An3PDMfX3uoB--3" value="&lt;font style=&quot;font-size: 14px;&quot;&gt;&lt;b&gt;스택 메모리&lt;/b&gt;&lt;/font&gt;" style="text;html=1;strokeColor=none;fillColor=none;align=center;verticalAlign=middle;whiteSpace=wrap;rounded=0;" vertex="1" parent="1">
          <mxGeometry x="60" y="50" width="120" height="30" as="geometry" />
        </mxCell>
        <mxCell id="F9F8SS4An3PDMfX3uoB--4" value="" style="rounded=0;whiteSpace=wrap;html=1;" vertex="1" parent="1">
          <mxGeometry x="270" y="80" width="120" height="60" as="geometry" />
        </mxCell>
        <mxCell id="F9F8SS4An3PDMfX3uoB--5" value="Student &lt;br&gt;클래스 생성" style="rounded=0;whiteSpace=wrap;html=1;fillColor=#bac8d3;strokeColor=#23445d;" vertex="1" parent="1">
          <mxGeometry x="290" y="90" width="80" height="40" as="geometry" />
        </mxCell>
        <mxCell id="F9F8SS4An3PDMfX3uoB--6" value="&lt;span style=&quot;font-size: 14px;&quot;&gt;&lt;b&gt;힙 메모리&lt;/b&gt;&lt;/span&gt;" style="text;html=1;strokeColor=none;fillColor=none;align=center;verticalAlign=middle;whiteSpace=wrap;rounded=0;" vertex="1" parent="1">
          <mxGeometry x="270" y="50" width="120" height="30" as="geometry" />
        </mxCell>
        <mxCell id="F9F8SS4An3PDMfX3uoB--7" value="" style="endArrow=classic;html=1;rounded=0;entryX=0;entryY=0.5;entryDx=0;entryDy=0;strokeColor=#FF0000;" edge="1" parent="1" target="F9F8SS4An3PDMfX3uoB--5">
          <mxGeometry width="50" height="50" relative="1" as="geometry">
            <mxPoint x="160" y="109.5" as="sourcePoint" />
            <mxPoint x="240" y="109.5" as="targetPoint" />
          </mxGeometry>
        </mxCell>
        <mxCell id="F9F8SS4An3PDMfX3uoB--9" value="" style="rounded=0;whiteSpace=wrap;html=1;" vertex="1" parent="1">
          <mxGeometry x="60" y="220" width="120" height="140" as="geometry" />
        </mxCell>
        <mxCell id="F9F8SS4An3PDMfX3uoB--10" value="student1" style="rounded=0;whiteSpace=wrap;html=1;fillColor=#bac8d3;strokeColor=#23445d;" vertex="1" parent="1">
          <mxGeometry x="80" y="230" width="80" height="40" as="geometry" />
        </mxCell>
        <mxCell id="F9F8SS4An3PDMfX3uoB--11" value="&lt;font style=&quot;font-size: 14px;&quot;&gt;&lt;b&gt;스택 메모리&lt;/b&gt;&lt;/font&gt;" style="text;html=1;strokeColor=none;fillColor=none;align=center;verticalAlign=middle;whiteSpace=wrap;rounded=0;" vertex="1" parent="1">
          <mxGeometry x="60" y="190" width="120" height="30" as="geometry" />
        </mxCell>
        <mxCell id="F9F8SS4An3PDMfX3uoB--12" value="" style="rounded=0;whiteSpace=wrap;html=1;" vertex="1" parent="1">
          <mxGeometry x="270" y="220" width="120" height="140" as="geometry" />
        </mxCell>
        <mxCell id="F9F8SS4An3PDMfX3uoB--13" value="Student &lt;br&gt;클래스 생성" style="rounded=0;whiteSpace=wrap;html=1;fillColor=#bac8d3;strokeColor=#23445d;" vertex="1" parent="1">
          <mxGeometry x="290" y="230" width="80" height="40" as="geometry" />
        </mxCell>
        <mxCell id="F9F8SS4An3PDMfX3uoB--14" value="&lt;span style=&quot;font-size: 14px;&quot;&gt;&lt;b&gt;힙 메모리&lt;/b&gt;&lt;/span&gt;" style="text;html=1;strokeColor=none;fillColor=none;align=center;verticalAlign=middle;whiteSpace=wrap;rounded=0;" vertex="1" parent="1">
          <mxGeometry x="270" y="190" width="120" height="30" as="geometry" />
        </mxCell>
        <mxCell id="F9F8SS4An3PDMfX3uoB--15" value="" style="endArrow=classic;html=1;rounded=0;entryX=0;entryY=0.5;entryDx=0;entryDy=0;strokeColor=#FF0000;" edge="1" parent="1" target="F9F8SS4An3PDMfX3uoB--13">
          <mxGeometry width="50" height="50" relative="1" as="geometry">
            <mxPoint x="160" y="249.5" as="sourcePoint" />
            <mxPoint x="240" y="249.5" as="targetPoint" />
          </mxGeometry>
        </mxCell>
        <mxCell id="F9F8SS4An3PDMfX3uoB--23" value="student2" style="rounded=0;whiteSpace=wrap;html=1;fillColor=#bac8d3;strokeColor=#23445d;" vertex="1" parent="1">
          <mxGeometry x="80" y="300" width="80" height="40" as="geometry" />
        </mxCell>
        <mxCell id="F9F8SS4An3PDMfX3uoB--24" value="Student &lt;br&gt;클래스 생성" style="rounded=0;whiteSpace=wrap;html=1;fillColor=#bac8d3;strokeColor=#23445d;" vertex="1" parent="1">
          <mxGeometry x="290" y="300" width="80" height="40" as="geometry" />
        </mxCell>
        <mxCell id="F9F8SS4An3PDMfX3uoB--25" value="" style="endArrow=classic;html=1;rounded=0;entryX=0;entryY=0.5;entryDx=0;entryDy=0;strokeColor=#FF0000;" edge="1" parent="1">
          <mxGeometry width="50" height="50" relative="1" as="geometry">
            <mxPoint x="160" y="319.5" as="sourcePoint" />
            <mxPoint x="290" y="320" as="targetPoint" />
          </mxGeometry>
        </mxCell>
      </root>
    </mxGraphModel>
  </diagram>
</mxfile>
